<svg width="24" height="24" viewBox="0 0 24 24" fill="none" xmlns="http://www.w3.org/2000/svg">
<path d="M9.23152 22.7501C9.22152 22.7501 9.21152 22.7501 9.19152 22.7501C7.51152 22.7401 6.31151 21.2301 5.46151 19.9201C3.29151 16.5901 2.85151 12.4001 4.42151 9.97007C5.47151 8.34007 7.17151 7.33005 8.85151 7.33005C9.72151 7.33005 10.4015 7.57007 11.0015 7.79007C11.4815 7.96007 11.8915 8.11005 12.3215 8.11005C12.7015 8.11005 13.0315 7.98007 13.4515 7.82007C14.0315 7.60007 14.7415 7.33005 15.7715 7.33005C17.2515 7.33005 18.7715 8.12006 19.8315 9.46006C19.9715 9.63006 20.0215 9.86007 19.9815 10.0701C19.9415 10.2901 19.8015 10.4701 19.6115 10.5801C18.4815 11.2001 17.8615 12.3301 17.9515 13.6101C18.0415 14.9101 18.8415 16.0101 20.0415 16.4601C20.2315 16.5301 20.3915 16.6801 20.4715 16.8701C20.5515 17.0601 20.5515 17.2801 20.4615 17.4601C20.0215 18.4401 19.8015 18.8901 19.2315 19.7701C18.2815 21.2301 17.0815 22.7301 15.4415 22.7501C14.7315 22.7501 14.2515 22.5401 13.8315 22.3401C13.4115 22.1501 13.0015 22.0001 12.3515 21.9801C11.6515 21.9801 11.2815 22.1501 10.8515 22.3401C10.4115 22.5401 9.93152 22.7501 9.23152 22.7501ZM8.85151 8.83005C7.67151 8.83005 6.46152 9.58006 5.68152 10.7801C4.62152 12.4201 4.63152 15.8901 6.72152 19.1001C7.37152 20.1001 8.24151 21.2401 9.21151 21.2501C9.57151 21.2401 9.84151 21.1401 10.2115 20.9801C10.7015 20.7601 11.3115 20.4901 12.3215 20.4801C13.3115 20.4601 13.9515 20.7501 14.4415 20.9801C14.8015 21.1501 15.0415 21.2601 15.4115 21.2501C16.3515 21.2401 17.2615 20.0201 17.9615 18.9601C18.3315 18.3901 18.5415 18.0301 18.7715 17.5201C17.4315 16.7301 16.5515 15.3401 16.4415 13.7201C16.3315 12.1901 16.9515 10.7601 18.0915 9.81006C17.3915 9.19006 16.5615 8.84006 15.7615 8.84006C15.0115 8.84006 14.5115 9.03008 13.9815 9.23008C13.4815 9.42008 12.9615 9.62006 12.3115 9.62006C11.6215 9.62006 11.0515 9.41007 10.4915 9.22007C9.96151 9.01007 9.45151 8.83005 8.85151 8.83005ZM11.8215 7.13007C11.7915 7.13007 11.7515 7.13007 11.7215 7.13007C11.3715 7.12007 11.0715 6.86007 11.0115 6.51007C10.8015 5.38007 11.2015 4.08005 12.0715 3.02005C12.8715 2.05005 14.1915 1.33006 15.3615 1.25006C15.7715 1.23006 16.1015 1.50008 16.1515 1.89008C16.3215 3.06008 15.9515 4.34007 15.1215 5.41007C14.3115 6.46007 13.0215 7.13007 11.8215 7.13007ZM14.6515 2.95008C14.1115 3.17008 13.5815 3.54007 13.2315 3.97007C12.9015 4.37007 12.5915 4.93007 12.4915 5.51007C13.0315 5.33007 13.5715 4.97006 13.9415 4.49006C14.1415 4.24006 14.5215 3.66008 14.6515 2.95008Z" fill="#FF0082"/>
</svg>
