<svg width="24" height="24" viewBox="0 0 24 24" fill="none" xmlns="http://www.w3.org/2000/svg">
<path d="M12 22.75C6.07 22.75 1.25 17.93 1.25 12C1.25 6.07 6.07 1.25 12 1.25C17.93 1.25 22.75 6.07 22.75 12C22.75 17.93 17.93 22.75 12 22.75ZM12 2.75C6.9 2.75 2.75 6.9 2.75 12C2.75 17.1 6.9 21.25 12 21.25C17.1 21.25 21.25 17.1 21.25 12C21.25 6.9 17.1 2.75 12 2.75Z" fill="white"/>
<path d="M17.4817 11.4202C17.3317 11.4202 17.1817 11.3701 17.0417 11.2801C14.0617 9.14014 10.2417 8.67014 6.84169 10.0301C6.45169 10.1801 6.02169 9.99013 5.87169 9.61013C5.72169 9.23013 5.91168 8.79016 6.29168 8.64016C10.1717 7.10016 14.5217 7.63015 17.9217 10.0701C18.2617 10.3101 18.3317 10.7801 18.0917 11.1201C17.9517 11.3101 17.7217 11.4202 17.4817 11.4202Z" fill="white"/>
<path d="M15.9089 14.1102C15.7589 14.1102 15.6089 14.0602 15.4689 13.9702C13.3489 12.4502 10.6389 12.1202 8.20887 13.0802C7.82887 13.2302 7.38887 13.0402 7.23887 12.6602C7.08887 12.2702 7.27887 11.8402 7.65887 11.6902C10.5589 10.5402 13.8089 10.9402 16.3389 12.7602C16.6789 13.0002 16.7489 13.4702 16.5089 13.8102C16.3689 14.0002 16.1389 14.1102 15.9089 14.1102Z" fill="white"/>
<path d="M14.8095 16.9C14.6595 16.9 14.5095 16.8501 14.3695 16.7601C12.8295 15.6601 10.8595 15.42 9.0995 16.11C8.7195 16.26 8.2795 16.0701 8.1295 15.6901C7.9795 15.3001 8.1695 14.8701 8.5495 14.7201C10.7895 13.8301 13.2895 14.1401 15.2395 15.5401C15.5795 15.7801 15.6495 16.2501 15.4095 16.5901C15.2795 16.7901 15.0495 16.9 14.8095 16.9Z" fill="white"/>
</svg>
