<svg width="22" height="18" viewBox="0 0 22 18" fill="none" xmlns="http://www.w3.org/2000/svg">
<path d="M15.75 17.5H5.75C1.34 17.5 0 16.16 0 11.75V11.25C0 10.84 0.34 10.5 0.75 10.5C1.71 10.5 2.5 9.71 2.5 8.75C2.5 7.79 1.71 7 0.75 7C0.34 7 0 6.66 0 6.25V5.75C0 1.34 1.34 0 5.75 0H15.75C20.16 0 21.5 1.34 21.5 5.75V6.75C21.5 7.16 21.16 7.5 20.75 7.5C19.79 7.5 19 8.29 19 9.25C19 10.21 19.79 11 20.75 11C21.16 11 21.5 11.34 21.5 11.75C21.5 16.16 20.16 17.5 15.75 17.5ZM1.5 11.91C1.52 15.35 2.23 16 5.75 16H15.75C19.09 16 19.9 15.41 19.99 12.41C18.56 12.07 17.5 10.78 17.5 9.25C17.5 7.72 18.57 6.43 20 6.09V5.75C20 2.18 19.33 1.5 15.75 1.5H5.75C2.23 1.5 1.52 2.15 1.5 5.59C2.93 5.93 4 7.22 4 8.75C4 10.28 2.93 11.57 1.5 11.91Z" fill="#A3A3AF"/>
</svg>
