<svg width="24" height="24" viewBox="0 0 24 24" fill="none" xmlns="http://www.w3.org/2000/svg">
<path d="M11.9989 11.4902C10.6789 11.4902 9.43888 10.9802 8.50888 10.0402L2.7789 4.31023C2.2589 3.79023 2.10889 3.02023 2.38889 2.35023C2.66889 1.68023 3.31886 1.24023 4.04886 1.24023H5.45889C6.49889 1.24023 7.47889 1.65023 8.20889 2.38023L11.7888 5.96023C11.9388 6.11023 12.0589 6.11023 12.2089 5.96023L15.7888 2.38023C16.5288 1.64023 17.4988 1.24023 18.5388 1.24023H19.9489C20.6789 1.24023 21.3289 1.68023 21.6089 2.35023C21.8889 3.02023 21.7388 3.79023 21.2188 4.31023L15.4889 10.0402C14.5589 10.9802 13.3189 11.4902 11.9989 11.4902ZM4.04886 2.75023C3.87886 2.75023 3.79889 2.87023 3.76889 2.93023C3.73889 2.99023 3.70889 3.13023 3.82889 3.25023L9.55887 8.98023C10.8589 10.2802 13.1289 10.2802 14.4289 8.98023L20.1588 3.25023C20.2788 3.13023 20.2488 2.99023 20.2188 2.93023C20.1888 2.87023 20.1189 2.75023 19.9389 2.75023H18.5289C17.8889 2.75023 17.2889 3.00023 16.8389 3.45023L13.2589 7.03023C12.5589 7.73023 11.4188 7.73023 10.7188 7.03023L7.13889 3.45023C6.68889 3.00023 6.08888 2.75023 5.44888 2.75023H4.04886Z" fill="white"/>
<path d="M19.9489 22.7202H18.5388C17.4988 22.7202 16.5188 22.3102 15.7888 21.5802L12.2089 18.0002C12.0589 17.8502 11.9388 17.8502 11.7888 18.0002L8.20889 21.5802C7.46889 22.3202 6.49889 22.7202 5.45889 22.7202H4.04886C3.31886 22.7202 2.66889 22.2802 2.38889 21.6102C2.10889 20.9402 2.2589 20.1702 2.7789 19.6502L8.50888 13.9202C9.43888 12.9902 10.6789 12.4702 11.9989 12.4702C13.3189 12.4702 14.5589 12.9802 15.4889 13.9202L21.2188 19.6502C21.7388 20.1702 21.8889 20.9402 21.6089 21.6102C21.3289 22.2802 20.6789 22.7202 19.9489 22.7202ZM11.9989 16.4202C12.4589 16.4202 12.9189 16.6002 13.2689 16.9502L16.8488 20.5302C17.2988 20.9802 17.8988 21.2302 18.5388 21.2302H19.9489C20.1189 21.2302 20.1989 21.1102 20.2289 21.0502C20.2589 20.9902 20.2889 20.8502 20.1689 20.7302L14.4389 15.0002C13.1389 13.7002 10.8689 13.7002 9.56888 15.0002L3.8389 20.7302C3.7189 20.8502 3.7489 20.9902 3.7789 21.0502C3.8089 21.1102 3.87887 21.2302 4.05887 21.2302H5.46884C6.10884 21.2302 6.70884 20.9802 7.15884 20.5302L10.7389 16.9502C11.0789 16.5902 11.5389 16.4202 11.9989 16.4202Z" fill="white"/>
</svg>
