<svg width="24" height="24" viewBox="0 0 24 24" fill="none" xmlns="http://www.w3.org/2000/svg">
<path d="M17 20.75H7C3.56 20.75 1.25 18.44 1.25 15V9C1.25 5.56 3.56 3.25 7 3.25H17C20.44 3.25 22.75 5.56 22.75 9V15C22.75 18.44 20.44 20.75 17 20.75ZM7 4.75C4.42 4.75 2.75 6.42 2.75 9V15C2.75 17.58 4.42 19.25 7 19.25H17C19.58 19.25 21.25 17.58 21.25 15V9C21.25 6.42 19.58 4.75 17 4.75H7Z" fill="white"/>
<path d="M10.5916 15.5302C10.3016 15.5302 10.0216 15.4602 9.77161 15.3202C9.19161 14.9902 8.85156 14.3202 8.85156 13.4902V10.5302C8.85156 9.70022 9.18161 9.03023 9.77161 8.70023C10.3516 8.37023 11.1016 8.4302 11.8116 8.8602L14.2816 10.3402C14.9616 10.7502 15.3516 11.3602 15.3516 12.0102C15.3516 12.6602 14.9616 13.2702 14.2816 13.6802L11.8116 15.1602C11.4016 15.4002 10.9816 15.5302 10.5916 15.5302ZM10.5916 9.97022C10.5516 9.97022 10.5216 9.98021 10.5016 9.99021C10.4316 10.0302 10.3516 10.2102 10.3516 10.5202V13.4802C10.3516 13.7802 10.4316 13.9602 10.5016 14.0102C10.5816 14.0502 10.7716 14.0302 11.0316 13.8702L13.5016 12.3902C13.7516 12.2402 13.8416 12.0902 13.8416 12.0002C13.8416 11.9102 13.7516 11.7702 13.5016 11.6102L11.0316 10.1302C10.8516 10.0202 10.6916 9.97022 10.5916 9.97022Z" fill="white"/>
</svg>
